<?xml version="1.0" encoding="UTF-8" standalone="no"?>
<!-- Created with Inkscape (http://www.inkscape.org/) -->

<svg
   xmlns:dc="http://purl.org/dc/elements/1.1/"
   xmlns:cc="http://creativecommons.org/ns#"
   xmlns:rdf="http://www.w3.org/1999/02/22-rdf-syntax-ns#"
   xmlns:svg="http://www.w3.org/2000/svg"
   xmlns="http://www.w3.org/2000/svg"
   xmlns:sodipodi="http://sodipodi.sourceforge.net/DTD/sodipodi-0.dtd"
   xmlns:inkscape="http://www.inkscape.org/namespaces/inkscape"
   width="666"
   height="500"
   id="svg5093"
   version="1.1"
   inkscape:version="0.48.4 r9939"
   sodipodi:docname="Nowy dokument 22">
  <defs
     id="defs5095" />
  <sodipodi:namedview
     id="base"
     pagecolor="#ffffff"
     bordercolor="#666666"
     borderopacity="1.0"
     inkscape:pageopacity="0.0"
     inkscape:pageshadow="2"
     inkscape:zoom="0.7"
     inkscape:cx="744.43093"
     inkscape:cy="20.743853"
     inkscape:document-units="px"
     inkscape:current-layer="layer1"
     showgrid="false"
     inkscape:window-width="1855"
     inkscape:window-height="1056"
     inkscape:window-x="65"
     inkscape:window-y="24"
     inkscape:window-maximized="1" />
  <metadata
     id="metadata5098">
    <rdf:RDF>
      <cc:Work
         rdf:about="">
        <dc:format>image/svg+xml</dc:format>
        <dc:type
           rdf:resource="http://purl.org/dc/dcmitype/StillImage" />
        <dc:title></dc:title>
      </cc:Work>
    </rdf:RDF>
  </metadata>
  <g
     inkscape:label="Layer 1"
     inkscape:groupmode="layer"
     id="layer1"
     transform="translate(0,-552.36218)">
    <path
       style="fill:#000000;fill-opacity:1;stroke:none;display:inline"
       d="M 39.119106,837.22964 24.59907,823.27636 c 0,0 4.789397,0.35173 0,0 C 3.980894,821.76227 3.980605,792.6281 7.184799,786.12563 c 3.204238,-6.50247 0.405764,-10.21408 0.405764,-10.21408 0,0 2.968363,2.8043 7.571608,9.07032 4.603299,6.26605 10.540557,13.53169 12.344305,23.33293 1.803739,9.80133 -1.462745,12.82089 -1.462745,12.82089 l 14.275135,14.34209 z"
       id="path3005"
       inkscape:connector-curvature="0"
       sodipodi:nodetypes="ccsscssccc"
       inkscape:transform-center-x="261.33713"
       inkscape:transform-center-y="13.851853" />
    <path
       style="fill:#000000;fill-opacity:1;stroke:none;display:inline"
       d="m 118.36618,945.31959 -22.3845,-2.46571 c 0,0 0.94326,2.70081 -2.59662,5.76365 -8.530067,7.38084 -35.995923,-13.87657 -38.120303,-20.5424 -2.12444,-6.66574 -4.95106,-12.27958 -4.95106,-12.27958 0,0 6.8665,3.82475 15.321376,5.99281 8.4549,2.16798 13.00973,1.82164 21.73855,8.19882 8.728767,6.37718 8.233457,10.45659 8.233457,10.45659 l 22.46712,2.89381 z"
       id="path3005-7"
       inkscape:connector-curvature="0"
       sodipodi:nodetypes="ccsscssccc"
       inkscape:transform-center-x="199.97116"
       inkscape:transform-center-y="140.25584" />
    <path
       style="fill:#000000;fill-opacity:1;stroke:none;display:inline"
       d="m 208.83549,985.6059 -0.56489,-10.00739 c 0,0 2.17653,-2.47944 8.16569,-8.30979 7.25329,-7.06095 0.89568,-18.96489 -9.88519,-29.35486 -7.03458,-6.77939 -12.45722,-12.62003 -12.45722,-12.62003 0,0 -2.27515,4.76474 -4.13629,13.56188 -1.86115,8.79701 -1.64001,13.42791 4.01827,22.26946 5.65828,8.84166 10.13945,14.19803 10.13945,14.19803 l 1.29184,10.0696 z"
       id="path3005-3"
       inkscape:connector-curvature="0"
       sodipodi:nodetypes="ccsscssccc"
       inkscape:transform-center-x="80.085929"
       inkscape:transform-center-y="162.7411" />
    <path
       style="fill:#000000;fill-opacity:1;stroke:none;display:inline"
       d="m 244.31396,998.54569 2.40303,-17.70582 c 0,0 2.91534,1.48433 7.3064,-0.3339 10.58123,-4.38174 -11.48529,-33.19447 -18.72878,-36.70342 -7.24347,-3.50897 -13.09973,-7.25232 -13.09973,-7.25232 0,0 2.82732,6.30365 3.35638,13.34303 0.52906,7.03928 2.8903,12.30508 8.24448,20.74918 5.3542,8.44411 10.20965,9.22756 10.20965,9.22756 l -1.92513,17.89044 z"
       id="path3005-7-6"
       inkscape:connector-curvature="0"
       sodipodi:nodetypes="ccsscssccc"
       inkscape:transform-center-x="44.791193"
       inkscape:transform-center-y="174.82924" />
    <path
       style="fill:#000000;fill-opacity:1;stroke:none;display:inline"
       d="m 48.299457,723.69199 -6.267946,-15.95976 c 0,0 4.203456,1.74242 0,0 -18.095947,-7.501 -3.456108,-31.63968 2.741066,-36.05653 6.19807,-4.41673 5.50365,-8.33974 5.50365,-8.33974 0,0 1.30565,3.2227 2.36694,9.80895 1.0613,6.58625 2.84028,14.40489 -0.43524,23.072 -3.2756,8.66712 -7.78038,10.17933 -7.78038,10.17933 l 5.84858,16.20774 z"
       id="path3005-5"
       inkscape:connector-curvature="0"
       sodipodi:nodetypes="ccsscssccc"
       inkscape:transform-center-x="240.62003"
       inkscape:transform-center-y="-99.204786" />
    <path
       style="fill:#000000;fill-opacity:1;stroke:none;display:inline"
       d="m 130.20205,632.52526 21.82898,-1.0422 c 0,0 -0.89156,2.4658 2.59794,5.52121 8.40882,7.36272 36.10979,-14.15592 38.11157,-20.25333 2.00177,-6.09738 4.70067,-11.17422 4.70067,-11.17422 0,0 -6.66278,3.18138 -14.89442,4.72845 -8.23158,1.54709 -13.79745,4.20422 -22.25079,9.66147 -8.45329,5.45724 -7.92542,9.28972 -7.92542,9.28972 l -21.90495,1.43679 z"
       id="path3005-7-3"
       inkscape:connector-curvature="0"
       sodipodi:nodetypes="ccsscssccc"
       inkscape:transform-center-x="120.48947"
       inkscape:transform-center-y="-170.67008" />
    <path
       style="fill:#000000;fill-opacity:1;stroke:none;display:inline"
       d="m 37.14629,800.21209 12.895447,-11.54691 c 0,0 2.89277,-1.76828 10.383216,-5.85507 9.07153,-4.94937 9.6825,-14.81505 6.0827,-23.8543 -2.34893,-5.89825 -3.86878,-10.92742 -3.86878,-10.92742 0,0 -4.05221,3.55432 -9.685546,10.30812 -5.63339,6.75381 -7.6502,10.40737 -7.36445,17.81165 0.28576,7.40439 1.29095,11.97644 1.29095,11.97644 l -12.350592,11.6553 z"
       id="path3005-3-3"
       inkscape:connector-curvature="0"
       sodipodi:nodetypes="ccsscssccc"
       inkscape:transform-center-x="232.76647"
       inkscape:transform-center-y="-18.598489" />
    <path
       style="fill:#000000;fill-opacity:1;stroke:none;display:inline"
       d="m 43.015249,847.78621 14.379668,-12.74465 c 0,0 1.357886,2.28886 6.242966,2.60284 11.77178,0.75639 13.80752,-30.15461 10.30832,-35.70318 -3.49917,-5.54849 -5.69318,-10.73503 -5.69318,-10.73503 0,0 -2.09059,5.97955 -6.58672,11.62765 -4.496056,5.64817 -6.242896,10.6429 -7.754716,19.26622 -1.51181,8.6233 1.93256,11.13015 1.93256,11.13015 l -14.115808,13.07445 z"
       id="path3005-7-6-7"
       inkscape:connector-curvature="0"
       sodipodi:nodetypes="ccsscssccc"
       inkscape:transform-center-x="225.70091"
       inkscape:transform-center-y="26.777458" />
    <path
       style="fill:#000000;fill-opacity:1;stroke:none;display:inline"
       d="m 80.037333,912.94615 -21.11455,-2.06626 c 0,0 3.86234,-2.28202 0,0 -16.627168,9.82421 -37.889947,-10.48796 -40.223364,-16.71228 -2.333343,-6.22438 -7.148901,-7.33532 -7.148901,-7.33532 0,0 4.281265,0.38871 12.319806,2.32835 8.038616,1.93956 17.81103,3.87225 26.322063,9.75381 8.511026,5.88168 8.255676,9.71065 8.255676,9.71065 l 21.21392,2.46662 z"
       id="path3005-6"
       inkscape:connector-curvature="0"
       sodipodi:nodetypes="ccsscssccc"
       inkscape:transform-center-x="238.51719"
       inkscape:transform-center-y="107.45703" />
    <path
       style="fill:#000000;fill-opacity:1;stroke:none;display:inline"
       d="m 75.057903,900.61314 5.77318,-16.5032 c 0,0 2.69149,1.46871 7.50658,-0.11288 11.603057,-3.81113 -5.46774,-31.37634 -12.18849,-34.8579 -6.72079,-3.48146 -11.98417,-7.14441 -11.98417,-7.14441 0,0 1.69669,5.97614 0.91374,12.57779 -0.78287,6.60172 0.63392,11.59384 4.50308,19.64185 3.86911,8.04811 8.6688,8.91402 8.6688,8.91402 l -5.32093,16.68882 z"
       id="path3005-7-9"
       inkscape:connector-curvature="0"
       sodipodi:nodetypes="ccsscssccc"
       inkscape:transform-center-x="206.09022"
       inkscape:transform-center-y="78.585188" />
    <path
       style="fill:#000000;fill-opacity:1;stroke:none;display:inline"
       d="m 57.734133,880.39263 -18.381166,-5.99065 c 0,0 -3.695905,-0.40806 -13.010114,-0.90486 C 15.062702,872.89558 9.345685,862.00388 8.099824,849.71682 7.286912,841.69954 6.130188,835.13144 6.130188,835.13144 c 0,0 5.737441,1.79803 14.656255,6.36104 8.918868,4.56304 12.754471,7.60316 16.330765,16.19049 3.576261,8.58736 4.989134,14.34958 4.989134,14.34958 l 17.914651,6.41612 z"
       id="path3005-3-4"
       inkscape:connector-curvature="0"
       sodipodi:nodetypes="ccsscssccc"
       inkscape:transform-center-x="251.23553"
       inkscape:transform-center-y="65.043267" />
    <path
       style="fill:#000000;fill-opacity:1;stroke:none;display:inline"
       d="m 169.56768,973.68544 2.11725,-11.73681 c 0,0 2.59472,1.51859 7.18931,0.0621 11.07179,-3.50861 -5.59066,-31.23271 -12.0677,-34.8404 -6.47707,-3.60766 -11.56013,-7.36136 -11.56013,-7.36136 0,0 6.22984,5.56777 5.55414,12.09431 -0.67569,6.52656 -3.79955,11.90476 -10e-4,19.97333 3.79686,8.06855 8.40425,9.03851 8.40425,9.03851 l -1.68197,11.93136 z"
       id="path3005-7-6-0"
       inkscape:connector-curvature="0"
       sodipodi:nodetypes="ccsscssccc"
       inkscape:transform-center-x="115.399"
       inkscape:transform-center-y="154.02845" />
    <path
       style="fill:#000000;fill-opacity:1;stroke:none;display:inline"
       d="m 167.05249,973.83961 -22.57751,1.35846 c 0,0 3.14445,-2.92293 0,0 -13.53674,12.58327 -43.02704,-4.37886 -47.74346,-10.25717 -4.71645,-5.87842 -10.102637,-6.21177 -10.102637,-6.21177 0,0 4.56669,-0.30577 13.589417,0.33615 9.02267,0.64201 19.8339,0.99484 30.80506,5.52333 10.97118,4.52851 12.12588,8.41977 12.12588,8.41977 l 22.82851,-0.97231 z"
       id="path3005-9"
       inkscape:connector-curvature="0"
       sodipodi:nodetypes="ccsscssccc"
       inkscape:transform-center-x="157.47042"
       inkscape:transform-center-y="176.47709" />
    <path
       style="fill:#000000;fill-opacity:1;stroke:none;display:inline"
       d="m 102.42255,931.79394 9.13838,-16.5973 c 0,0 3.59171,-0.76164 6.46189,-4.24797 1.96734,-2.38911 2.22176,-8.5549 -10e-4,-17.62192 -1.81383,-7.39662 -4.26825,-11.85445 -6.94055,-14.07902 -5.948,-4.95165 -10.41271,-9.83117 -10.41271,-9.83117 0,0 -1.77648,3.97943 -1.91539,11.10742 -0.16705,8.57211 1.51829,12.71795 3.69341,22.03312 2.17518,9.31517 6.75793,11.11816 6.75793,11.11816 l -8.72817,16.87857 z"
       id="path3005-7-0"
       inkscape:connector-curvature="0"
       sodipodi:nodetypes="ccssscssccc"
       inkscape:transform-center-x="175.14271"
       inkscape:transform-center-y="107.88651" />
    <path
       style="fill:#000000;fill-opacity:1;stroke:none;display:inline"
       d="m 258.18987,1001.6879 -18.8418,6.4645 c 0,0 -2.97115,1.8732 -9.91296,6.9767 -8.40707,6.1805 -23.53395,1.6916 -37.00539,-6.4235 -8.79015,-5.2948 -16.33032,-9.34518 -16.33032,-9.34518 0,0 5.80751,-2.06937 16.64984,-4.01377 10.84233,-1.94433 16.61141,-2.00454 27.89491,2.08061 11.28342,4.08514 18.17327,7.40504 18.17327,7.40504 l 18.95656,-5.88466 z"
       id="path3005-3-9"
       inkscape:connector-curvature="0"
       sodipodi:nodetypes="ccsscssccc"
       inkscape:transform-center-x="67.166467"
       inkscape:transform-center-y="213.31973" />
    <path
       style="fill:#000000;fill-opacity:1;stroke:none;display:inline"
       d="m 136.81628,957.41762 4.85678,-17.37834 c 0,0 2.69007,1.73727 7.307,0.32541 11.12564,-3.40223 -6.78442,-34.01881 -13.49307,-38.15734 -6.70862,-4.13846 -12.00604,-8.38516 -12.00604,-8.38516 0,0 1.9306,6.51836 1.47473,13.56107 -0.45582,7.04263 1.15632,12.4877 5.29929,21.36029 4.1431,8.87265 8.8588,10.08806 8.8588,10.08806 l -4.40766,17.6046 z"
       id="path3005-7-6-6"
       inkscape:connector-curvature="0"
       sodipodi:nodetypes="ccsscssccc"
       inkscape:transform-center-x="146.30125"
       inkscape:transform-center-y="132.90115" />
    <path
       style="fill:#000000;stroke:#000000;stroke-width:2.04519033px;stroke-linecap:butt;stroke-linejoin:miter;stroke-opacity:1;display:inline"
       d="m 353.74027,1020.0365 c -1.84981,-0.3981 -15.36319,-9.0175 -21.47279,-10.1898 -5.59516,-1.0735 -15.71812,-2.0521 -20.02427,-2.1668 -4.3842,-0.1173 -13.06829,-7.5406 -17.68348,-7.638 -12.27069,-0.25881 -24.12761,3.0975 -29.02859,2.0933 -12.94259,-2.65193 -25.76277,-5.45865 -36.90249,-8.73163 -18.77184,-5.51549 -39.80428,-7.04631 -56.25798,-13.54087 -9.65864,-3.81257 -15.62433,-12.27814 -24.27364,-16.41089 -23.12749,-11.05082 -29.58231,-15.24742 -57.109147,-39.02365 -2.9188,-2.52109 -5.94793,-5.35099 -9.02154,-8.47251 -2.43557,-2.47366 -3.65662,-5.87706 -6.11515,-8.7086 -2.32921,-2.68262 -5.89656,-4.77531 -8.1891,-7.76423 -11.044866,-14.40006 -21.339996,-32.27246 -27.765988,-52.81108 -2.771438,-8.85814 -4.865335,-17.34452 -6.344151,-25.50945 -0.639763,-3.5325 0.783883,-7.42405 0.369286,-10.84025 -0.316163,-2.6049 -0.568289,-5.17717 -0.758691,-7.7187 -0.21177,-2.82728 -2.295533,-5.1972 -2.357672,-7.95074 -0.09367,-4.1454 -0.02057,-8.21002 0.207453,-12.20252 0.932331,-16.30623 4.460372,-31.40815 9.865148,-45.885 1.941283,-5.1997 6.052989,-11.69223 8.445179,-16.75755 2.95865,-6.26466 4.3084,-11.07362 7.8428,-17.2245 12.112696,-21.07947 29.366936,-42.73679 53.658373,-61.19358 2.61964,-1.99043 1.09471,-1.05786 3.88042,-2.9691 1.47337,-1.01086 3.86296,-1.86325 5.38384,-2.84996 1.74241,-1.13042 6.84986,-5.27699 8.65556,-6.37372 16.29954,-9.8998 35.19956,-18.38329 57.08913,-24.67501 -19.32115,7.84561 -35.16577,15.43651 -48.30806,22.84022 -3.94495,2.22239 -8.6926,5.89852 -13.42279,8.9434 -2.25358,1.45063 -4.30056,2.79128 -5.85923,3.82826 -1.44994,0.96465 1.36829,-0.95923 0,0 -2.88262,2.02091 -6.48074,3.88347 -9.02594,5.88259 -26.990797,21.19987 -35.966747,41.25825 -47.253907,61.95075 -3.61225,6.62227 -4.876126,11.76108 -7.650266,18.20561 -1.39537,3.24164 -4.61329,7.83959 -5.79734,11.05236 -5.431358,14.73701 -8.642075,29.22666 -9.655929,43.98826 -0.349198,5.08435 -0.437755,10.20094 -0.266694,15.37101 0.07918,2.39595 2.162601,4.38408 2.353313,6.80518 0.149886,1.90016 0.333617,3.80861 0.551834,5.72652 0.481554,4.23248 -0.8184,8.93016 -0.0043,13.26513 1.349679,7.18272 3.155846,14.5212 5.416126,22.06529 5.24211,17.49634 15.209426,33.21854 26.765596,48.96787 1.27965,1.74401 3.82128,2.74166 5.13566,4.48875 1.11364,1.48034 2.25319,2.94827 3.42319,4.4049 1.87122,2.3298 2.57774,5.37741 4.62304,7.65435 14.125477,15.72589 32.842527,30.30884 62.235567,45.33179 12.6864,6.48419 24.13438,17.54005 41.28763,24.3154 12.25105,4.83915 26.24185,4.21344 35.71173,7.27773 23.83194,7.71159 34.90637,10.35724 45.43929,10.72457 5.86748,0.20482 14.14993,-3.23817 22.68702,-3.1355 11.05507,0.13393 30.55792,7.3968 37.77602,6.819 4.4065,-0.3528 17.54004,9.5669 21.78841,8.9922 3.9948,-0.5404 7.22532,-0.6333 8.38566,0.747 9.89205,11.7682 15.43887,28.7028 15.43887,28.7028 l -14.78424,1.9086 z"
       id="path3869"
       inkscape:connector-curvature="0"
       sodipodi:nodetypes="csssssssssssssssssssssssscssssssssssssssssssssssssssccc"
       inkscape:transform-center-x="92.709667"
       inkscape:transform-center-y="23.031069" />
    <path
       style="fill:#000000;fill-opacity:1;stroke:none;display:inline"
       d="m 208.04768,984.19576 -21.84224,4.78713 c 0,0 2.3939,-3.35039 0,0 -10.30574,14.42351 -43.27787,2.28264 -49.30162,-2.7667 -6.02383,-5.04944 -11.39046,-4.55277 -11.39046,-4.55277 0,0 4.41061,-0.99881 13.42042,-1.74861 9.00978,-0.74993 19.70679,-2.0572 31.55084,0.71015 11.84406,2.76761 13.90015,6.41099 13.90015,6.41099 l 22.18027,-4.4462 z"
       id="path3005-9-8"
       inkscape:connector-curvature="0"
       sodipodi:nodetypes="ccsscssccc"
       inkscape:transform-center-x="117.53058"
       inkscape:transform-center-y="194.65624" />
    <path
       style="fill:#000000;fill-opacity:1;stroke:none;display:inline"
       d="m 47.533027,744.28388 16.999466,-10.2693 c 0,0 -4.76541,-0.42513 0,0 20.51511,1.83041 26.28503,-24.29984 24.43121,-30.62742 -1.85387,-6.32756 1.62496,-9.22369 1.62496,-9.22369 0,0 -3.46572,2.05609 -9.21992,6.96423 -5.75422,4.90814 -13.01437,10.50656 -16.72384,19.01835 -3.70946,8.51176 -1.10484,11.7252 -1.10484,11.7252 L 46.703657,742.5271 z"
       id="path3005-6-5"
       inkscape:connector-curvature="0"
       sodipodi:nodetypes="ccsscssccc"
       inkscape:transform-center-x="215.66495"
       inkscape:transform-center-y="-73.495087" />
    <path
       style="fill:#000000;fill-opacity:1;stroke:none;display:inline"
       d="m 37.816914,780.51442 -16.449619,-13.9972 c 0,0 -5.882387,-2.00474 -8.035727,-5.61096 -1.542127,-2.58272 -2.895642,-8.32188 -3.896335,-17.52805 -0.816344,-7.51017 -6.5e-4,-12.34023 1.796779,-15.07365 4.000834,-6.08417 6.601765,-11.76798 6.601765,-11.76798 0,0 3.083114,3.42623 5.682383,10.24249 3.12589,8.19727 3.031312,16.22123 4.164286,25.65505 1.132965,9.4338 -2.645614,12.18862 -2.645614,12.18862 l 14.223322,14.26591 z"
       id="path3005-7-0-2"
       inkscape:connector-curvature="0"
       sodipodi:nodetypes="ccssscssccc"
       inkscape:transform-center-x="260.12303"
       inkscape:transform-center-y="-44.193243" />
    <path
       style="fill:#000000;fill-opacity:1;stroke:none;display:inline"
       d="m 68.341843,689.21772 2.57243,-16.95971 c 0,0 2.84114,3.10231 0,0 -12.23108,-13.35532 13.05731,-30.43409 20.80656,-32.30831 7.749187,-1.87419 9.132357,-5.74216 9.132357,-5.74216 0,0 -0.48399,3.43878 -2.89879,9.89555 -2.41478,6.4568 -4.82086,14.3062 -12.143397,21.14252 -7.32261,6.83619 -12.08958,6.63112 -12.08958,6.63112 l -3.07082,17.0395 z"
       id="path3005-6-1"
       inkscape:connector-curvature="0"
       sodipodi:nodetypes="ccsscssccc"
       inkscape:transform-center-x="200.07039"
       inkscape:transform-center-y="-131.00614" />
    <path
       style="fill:#000000;fill-opacity:1;stroke:none;display:inline"
       d="m 70.754913,692.27757 20.81852,-3.77331 c 0,0 -0.32776,2.6003 3.695067,5.24958 9.69394,6.38406 31.75697,-18.79125 32.37171,-25.19586 0.61468,-6.40455 2.12156,-11.86582 2.12156,-11.86582 0,0 -5.73682,4.04201 -13.33844,6.62987 -7.60164,2.5879 -12.39413,5.96402 -19.36622,12.52667 -6.972047,6.56263 -5.636647,10.36551 -5.636647,10.36551 l -20.80656,4.1811 z"
       id="path3005-7-9-6"
       inkscape:connector-curvature="0"
       sodipodi:nodetypes="ccsscssccc"
       inkscape:transform-center-x="184.12326"
       inkscape:transform-center-y="-116.98167" />
    <path
       style="fill:#000000;fill-opacity:1;stroke:none;display:inline"
       d="m 164.65321,610.71648 13.3314,-11.79846 c 0,0 1.74973,-2.64655 5.53764,-9.49936 4.58738,-8.29923 19.28673,-8.85994 34.07736,-5.56853 9.65093,2.14768 17.72629,3.53703 17.72629,3.53703 0,0 -4.07725,3.7075 -12.48184,8.86197 -8.40453,5.15448 -13.27882,7.00005 -24.54759,6.73999 -11.26876,-0.26014 -18.49032,-1.17887 -18.49032,-1.17887 l -13.66833,11.30013 z"
       id="path3005-3-4-9"
       inkscape:connector-curvature="0"
       sodipodi:nodetypes="ccsscssccc"
       inkscape:transform-center-x="84.321544"
       inkscape:transform-center-y="-195.17636" />
    <path
       style="fill:#000000;fill-opacity:1;stroke:none;display:inline"
       d="m 104.17126,649.36343 2.57246,-16.95971 c 0,0 2.84113,3.1023 0,0 -12.23104,-13.3553 13.05734,-30.43408 20.80655,-32.30831 7.74923,-1.8742 9.13239,-5.74217 9.13239,-5.74217 0,0 -0.48399,3.43881 -2.8988,9.89557 -2.41478,6.45679 -4.82087,14.3062 -12.14338,21.14249 -7.32259,6.83623 -12.08959,6.63112 -12.08959,6.63112 l -3.07084,17.03952 z"
       id="path3005-6-1-2"
       inkscape:connector-curvature="0"
       sodipodi:nodetypes="ccsscssccc"
       inkscape:transform-center-x="164.24093"
       inkscape:transform-center-y="-170.86044" />
    <path
       style="fill:#000000;fill-opacity:1;stroke:none;display:inline"
       d="m 147.38209,619.9499 0.36394,-11.85578 c 0,0 -2.87508,1.14744 -7.10044,-0.907 -10.18213,-4.95074 12.03427,-30.03693 19.17302,-32.72077 7.13873,-2.6838 12.93372,-5.69941 12.93372,-5.69941 0,0 -7.30438,4.64942 -8.00131,11.17454 -0.69699,6.5251 1.25944,12.24806 -4.16869,19.69067 -5.42814,7.44266 -10.17286,7.77806 -10.17286,7.77806 l -0.83366,11.98893 z"
       id="path3005-7-6-0-3"
       inkscape:connector-curvature="0"
       sodipodi:nodetypes="ccsscssccc"
       inkscape:transform-center-x="128.92524"
       inkscape:transform-center-y="-198.36034" />
    <path
       style="fill:#000000;fill-opacity:1;stroke:none;display:inline"
       d="m 623.35219,836.27385 14.52001,-13.95329 c 0,0 -4.78939,0.35166 0,0 20.6182,-1.51408 20.61848,-30.64825 17.41429,-37.1508 -3.20424,-6.50249 -0.40575,-10.21402 -0.40575,-10.21402 0,0 -2.96834,2.80423 -7.57164,9.07025 -4.60328,6.26603 -10.54054,13.53168 -12.34429,23.33301 -1.80372,9.80124 1.46273,12.82089 1.46273,12.82089 l -14.27512,14.34209 z"
       id="path3005-0"
       inkscape:connector-curvature="0"
       sodipodi:nodetypes="ccsscssccc"
       inkscape:transform-center-x="-261.33715"
       inkscape:transform-center-y="13.851856" />
    <path
       style="fill:#000000;fill-opacity:1;stroke:none;display:inline"
       d="m 544.10508,944.36372 22.38451,-2.46565 c 0,0 -0.94324,2.70072 2.59661,5.76366 8.53007,7.38075 35.99596,-13.87657 38.12033,-20.54241 2.12443,-6.66583 4.95105,-12.27956 4.95105,-12.27956 0,0 -6.86647,3.82463 -15.32137,5.9928 -8.45493,2.16797 -13.00971,1.82155 -21.73855,8.19873 -8.72877,6.37719 -8.23345,10.45667 -8.23345,10.45667 l -22.46715,2.89373 z"
       id="path3005-7-1"
       inkscape:connector-curvature="0"
       sodipodi:nodetypes="ccsscssccc"
       inkscape:transform-center-x="-199.97113"
       inkscape:transform-center-y="140.25587" />
    <path
       style="fill:#000000;fill-opacity:1;stroke:none;display:inline"
       d="m 453.63581,984.65001 0.56487,-10.0073 c 0,0 -2.17655,-2.47945 -8.16569,-8.30981 -7.25329,-7.061 -0.89569,-18.96495 9.88518,-29.35483 7.03458,-6.7795 12.45721,-12.62015 12.45721,-12.62015 0,0 2.27518,4.76477 4.1363,13.56188 1.86117,8.79712 1.64002,13.42793 -4.01828,22.26957 -5.65827,8.84156 -10.13945,14.19803 -10.13945,14.19803 l -1.29182,10.06968 z"
       id="path3005-3-6"
       inkscape:connector-curvature="0"
       sodipodi:nodetypes="ccsscssccc"
       inkscape:transform-center-x="-80.085927"
       inkscape:transform-center-y="162.7411" />
    <path
       style="fill:#000000;fill-opacity:1;stroke:none;display:inline"
       d="m 418.15732,997.58988 -2.40302,-17.70592 c 0,0 -2.91536,1.48442 -7.30641,-0.33387 -10.58123,-4.38168 11.48526,-33.19447 18.72877,-36.70343 7.2435,-3.5089 13.09972,-7.25231 13.09972,-7.25231 0,0 -2.82731,6.30372 -3.35635,13.343 -0.52903,7.03939 -2.89031,12.30519 -8.24447,20.74929 -5.3542,8.44402 -10.20967,9.22764 -10.20967,9.22764 l 1.92512,17.89027 z"
       id="path3005-7-6-9"
       inkscape:connector-curvature="0"
       sodipodi:nodetypes="ccsscssccc"
       inkscape:transform-center-x="-44.791181"
       inkscape:transform-center-y="174.82921" />
    <path
       style="fill:#000000;fill-opacity:1;stroke:none;display:inline"
       d="m 614.17181,722.73614 6.26798,-15.95979 c 0,0 -4.20347,1.74246 0,0 18.09593,-7.50097 3.4561,-31.63963 -2.74107,-36.0565 -6.19807,-4.41672 -5.50366,-8.33975 -5.50366,-8.33975 0,0 -1.30565,3.22272 -2.36695,9.80898 -1.06131,6.58622 -2.84029,14.40488 0.43523,23.07196 3.27562,8.66715 7.7804,10.17935 7.7804,10.17935 l -5.84858,16.2077 z"
       id="path3005-5-9"
       inkscape:connector-curvature="0"
       sodipodi:nodetypes="ccsscssccc"
       inkscape:transform-center-x="-240.62004"
       inkscape:transform-center-y="-99.204795" />
    <path
       style="fill:#000000;fill-opacity:1;stroke:none;display:inline"
       d="m 535.9368,635.23698 -21.82897,-1.04219 c 0,0 0.89156,2.46582 -2.59795,5.52121 -8.40882,7.36272 -36.10978,-14.15591 -38.11154,-20.25332 -2.0018,-6.09739 -4.70067,-11.17423 -4.70067,-11.17423 0,0 6.66274,3.18138 14.8944,4.72843 8.23159,1.5471 13.79743,4.20426 22.25078,9.66152 8.4533,5.45721 7.92542,9.2897 7.92542,9.2897 l 21.90495,1.43678 z"
       id="path3005-7-3-0"
       inkscape:connector-curvature="0"
       sodipodi:nodetypes="ccsscssccc"
       inkscape:transform-center-x="-120.48948"
       inkscape:transform-center-y="-170.67008" />
    <path
       style="fill:#000000;fill-opacity:1;stroke:none;display:inline"
       d="m 625.325,799.25627 -12.89545,-11.54689 c 0,0 -2.89278,-1.76836 -10.38324,-5.85515 -9.07152,-4.94929 -9.68252,-14.81498 -6.08268,-23.85432 2.34893,-5.89816 3.86877,-10.92732 3.86877,-10.92732 0,0 4.05221,3.55423 9.68558,10.30811 5.63335,6.75373 7.65016,10.40729 7.36442,17.81168 -0.28577,7.40438 -1.29094,11.97632 -1.29094,11.97632 l 12.3506,11.65533 z"
       id="path3005-3-3-0"
       inkscape:connector-curvature="0"
       sodipodi:nodetypes="ccsscssccc"
       inkscape:transform-center-x="-232.76648"
       inkscape:transform-center-y="-18.598498" />
    <path
       style="fill:#000000;fill-opacity:1;stroke:none;display:inline"
       d="m 619.45603,846.8304 -14.37964,-12.74473 c 0,0 -1.35791,2.28895 -6.24298,2.60283 -11.77178,0.75649 -13.80755,-30.15459 -10.30832,-35.70308 3.49916,-5.54858 5.69317,-10.73503 5.69317,-10.73503 0,0 2.0906,5.97945 6.58672,11.62755 4.49606,5.64817 6.2429,10.64292 7.75472,19.26623 1.51181,8.62331 -1.93259,11.13014 -1.93259,11.13014 l 14.11585,13.07446 z"
       id="path3005-7-6-7-3"
       inkscape:connector-curvature="0"
       sodipodi:nodetypes="ccsscssccc"
       inkscape:transform-center-x="-225.70092"
       inkscape:transform-center-y="26.777461" />
    <path
       style="fill:#000000;fill-opacity:1;stroke:none;display:inline"
       d="m 582.43392,911.99027 21.11459,-2.06618 c 0,0 -3.86233,-2.28212 0,0 16.62717,9.82422 37.88993,-10.48797 40.22336,-16.71235 2.33334,-6.2244 7.14891,-7.33534 7.14891,-7.33534 0,0 -4.28127,0.38871 -12.31984,2.32836 -8.03859,1.93964 -17.811,3.87223 -26.32208,9.75389 -8.51101,5.88166 -8.25564,9.71064 -8.25564,9.71064 l -21.21392,2.46652 z"
       id="path3005-6-6"
       inkscape:connector-curvature="0"
       sodipodi:nodetypes="ccsscssccc"
       inkscape:transform-center-x="-238.51718"
       inkscape:transform-center-y="107.45704" />
    <path
       style="fill:#000000;fill-opacity:1;stroke:none;display:inline"
       d="m 587.41337,899.65725 -5.77319,-16.50312 c 0,0 -2.69149,1.46863 -7.50657,-0.11288 -11.60308,-3.81121 5.46773,-31.37642 12.1885,-34.85796 6.72079,-3.48149 11.98419,-7.14441 11.98419,-7.14441 0,0 -1.6967,5.97612 -0.91377,12.57776 0.78289,6.60174 -0.63392,11.59386 -4.50304,19.64196 -3.86915,8.048 -8.66885,8.91393 -8.66885,8.91393 l 5.32097,16.68883 z"
       id="path3005-7-9-4"
       inkscape:connector-curvature="0"
       sodipodi:nodetypes="ccsscssccc"
       inkscape:transform-center-x="-206.09022"
       inkscape:transform-center-y="78.585169" />
    <path
       style="fill:#000000;fill-opacity:1;stroke:none;display:inline"
       d="m 604.73713,879.43675 18.38117,-5.99057 c 0,0 3.69592,-0.40817 13.01014,-0.90485 11.28015,-0.60163 16.99714,-11.49333 18.243,-23.78032 0.81294,-8.01735 1.96967,-14.58538 1.96967,-14.58538 0,0 -5.73745,1.79802 -14.65631,6.36105 -8.91882,4.56294 -12.75441,7.60316 -16.33073,16.19051 -3.57627,8.58735 -4.98912,14.34947 -4.98912,14.34947 l -17.91469,6.4162 z"
       id="path3005-3-4-5"
       inkscape:connector-curvature="0"
       sodipodi:nodetypes="ccsscssccc"
       inkscape:transform-center-x="-251.23552"
       inkscape:transform-center-y="65.043269" />
    <path
       style="fill:#000000;fill-opacity:1;stroke:none;display:inline"
       d="m 492.90361,972.72956 -2.11729,-11.7368 c 0,0 -2.5947,1.51856 -7.18927,0.0621 -11.07179,-3.50859 5.59062,-31.23281 12.06767,-34.8405 6.47709,-3.60766 11.56015,-7.36136 11.56015,-7.36136 0,0 -6.22986,5.56777 -5.55415,12.09433 0.67567,6.52656 3.7996,11.90475 10e-4,19.97331 -3.79688,8.06866 -8.40425,9.03861 -8.40425,9.03861 l 1.68198,11.93134 z"
       id="path3005-7-6-0-0"
       inkscape:connector-curvature="0"
       sodipodi:nodetypes="ccsscssccc"
       inkscape:transform-center-x="-115.399"
       inkscape:transform-center-y="154.02838" />
    <path
       style="fill:#000000;fill-opacity:1;stroke:none;display:inline"
       d="m 495.41879,972.88371 22.57752,1.35856 c 0,0 -3.1445,-2.92292 0,0 13.53673,12.58309 43.02703,-4.37894 47.74345,-10.25727 4.71643,-5.87832 10.10266,-6.21167 10.10266,-6.21167 0,0 -4.56673,-0.30586 -13.58943,0.33613 -9.0227,0.64203 -19.8339,0.99486 -30.80508,5.52335 -10.97118,4.5285 -12.12587,8.41968 -12.12587,8.41968 l -22.82853,-0.97222 z"
       id="path3005-9-4"
       inkscape:connector-curvature="0"
       sodipodi:nodetypes="ccsscssccc"
       inkscape:transform-center-x="-157.47042"
       inkscape:transform-center-y="176.4771" />
    <path
       style="fill:#000000;fill-opacity:1;stroke:none;display:inline"
       d="m 560.04873,930.83814 -9.1384,-16.59731 c 0,0 -3.59168,-0.76173 -6.46187,-4.24796 -1.96735,-2.38911 -2.22178,-8.55501 0.001,-17.622 1.81383,-7.39664 4.26827,-11.85438 6.94053,-14.07905 5.948,-4.95164 10.41272,-9.83107 10.41272,-9.83107 0,0 1.77647,3.97943 1.9154,11.10734 0.16706,8.5721 -1.5183,12.71805 -3.69343,22.03321 -2.17514,9.31516 -6.75791,11.11816 -6.75791,11.11816 l 8.72817,16.87857 z"
       id="path3005-7-0-6"
       inkscape:connector-curvature="0"
       sodipodi:nodetypes="ccssscssccc"
       inkscape:transform-center-x="-175.1427"
       inkscape:transform-center-y="107.88652" />
    <path
       style="fill:#000000;fill-opacity:1;stroke:none;display:inline"
       d="m 404.28139,1000.732 18.84181,6.4646 c 0,0 2.97114,1.873 9.91297,6.9765 8.40705,6.1808 23.53398,1.6917 37.00539,-6.4232 8.79016,-5.2951 16.33033,-9.3452 16.33033,-9.3452 0,0 -5.80752,-2.06962 -16.64987,-4.01404 -10.84231,-1.94414 -16.61141,-2.00446 -27.89488,2.0808 -11.28346,4.08514 -18.17326,7.40494 -18.17326,7.40494 l -18.95658,-5.88445 z"
       id="path3005-3-9-7"
       inkscape:connector-curvature="0"
       sodipodi:nodetypes="ccsscssccc"
       inkscape:transform-center-x="-67.166461"
       inkscape:transform-center-y="213.31975" />
    <path
       style="fill:#000000;fill-opacity:1;stroke:none;display:inline"
       d="m 525.65501,956.46172 -4.85678,-17.37831 c 0,0 -2.69008,1.73725 -7.30701,0.3254 -11.12563,-3.40214 6.78442,-34.01874 13.49305,-38.15727 6.70863,-4.13854 12.00604,-8.38516 12.00604,-8.38516 0,0 -1.93058,6.51837 -1.47471,13.561 0.45583,7.04262 -1.1563,12.48771 -5.29929,21.36037 -4.14312,8.87256 -8.85881,10.08806 -8.85881,10.08806 l 4.40765,17.6046 z"
       id="path3005-7-6-6-8"
       inkscape:connector-curvature="0"
       sodipodi:nodetypes="ccsscssccc"
       inkscape:transform-center-x="-146.30125"
       inkscape:transform-center-y="132.90114" />
    <path
       style="fill:#000000;stroke:#000000;stroke-width:2.04519033px;stroke-linecap:butt;stroke-linejoin:miter;stroke-opacity:1;display:inline"
       d="m 308.73101,1019.0807 c 1.8498,-0.3981 15.3632,-12.6845 21.47279,-13.8569 5.59515,-1.0735 15.71816,-2.052 20.02427,-2.1668 4.3842,-0.1174 13.06829,-0.2068 17.68348,-0.304 12.27068,-0.2588 24.12761,-0.5694 29.0286,-1.5736 12.94256,-2.65183 25.76276,-5.45866 36.90249,-8.73182 18.77183,-5.51548 39.80427,-7.04613 56.25797,-13.54076 9.65865,-3.8125 15.62435,-12.27815 24.27364,-16.41092 23.12748,-11.05071 29.58232,-15.24732 57.10914,-39.02356 2.9188,-2.52108 5.94794,-5.35098 9.02153,-8.47259 2.4356,-2.47366 3.65662,-5.87706 6.11519,-8.70859 2.3292,-2.68252 5.89656,-4.77522 8.18905,-7.76423 11.04491,-14.40004 21.34003,-32.27245 27.76602,-52.81108 2.77142,-8.85806 4.86534,-17.34444 6.34415,-25.50946 0.63974,-3.5324 -0.7839,-7.42402 -0.36928,-10.84024 0.31614,-2.60491 0.56829,-5.17709 0.75869,-7.71861 0.21177,-2.82729 2.29557,-5.19721 2.35764,-7.95075 0.0937,-4.14547 0.0206,-8.21009 -0.20743,-12.20259 -0.93234,-16.30626 -4.46035,-31.40808 -9.86517,-45.88496 -1.94125,-5.19973 -6.05296,-11.69226 -8.44518,-16.75756 -2.95863,-6.26465 -4.30836,-11.07362 -7.8428,-17.22452 -12.11268,-21.07945 -29.36692,-42.73676 -53.65837,-61.19356 -2.61961,-1.99041 -1.0947,-1.05785 -3.8804,-2.96909 -1.47337,-1.01086 -3.86298,-1.86327 -5.38384,-2.84996 -1.74239,-1.13041 -6.84985,-5.27699 -8.65556,-6.37372 -16.29954,-9.89978 -35.19956,-18.38331 -57.08913,-24.67503 19.32115,7.84562 35.16575,15.43652 48.30807,22.84025 3.94495,2.22239 8.69258,5.89849 13.42278,8.94337 2.25359,1.45063 4.30056,2.79128 5.85923,3.82828 1.44995,0.96465 -1.36828,-0.95924 0,0 2.88263,2.02091 6.48073,3.88346 9.02593,5.8826 26.9908,21.19988 35.96677,41.25823 47.25393,61.95073 3.61224,6.62229 4.8761,11.76109 7.65027,18.20562 1.39536,3.24162 4.61328,7.83958 5.79732,11.05238 5.43135,14.73702 8.6421,29.22659 9.65593,43.98829 0.34921,5.08425 0.43777,10.20083 0.26672,15.37089 -0.0792,2.39606 -2.1626,4.38419 -2.35333,6.80519 -0.14988,1.90017 -0.33361,3.80861 -0.55183,5.72654 -0.48155,4.23255 0.81838,8.93016 0.004,13.26521 -1.34964,7.18262 -3.15579,14.5211 -5.41608,22.06521 -5.24211,17.49633 -15.20947,33.21852 -26.76563,48.96786 -1.27965,1.74403 -3.82126,2.74174 -5.13564,4.48885 -1.11363,1.48025 -2.25319,2.94815 -3.42322,4.40489 -1.87119,2.3297 -2.57773,5.3773 -4.62304,7.65436 -14.12545,15.7258 -32.84252,30.30874 -62.23556,45.33178 -12.68639,6.48409 -24.13436,17.53995 -41.2876,24.31541 -12.25105,4.83895 -26.24184,4.21342 -35.71174,7.27772 -23.83195,7.71151 -34.90637,10.35706 -45.4393,10.72457 -5.86747,0.20465 -14.14991,0.42855 -22.68702,0.53142 -11.05507,0.13391 -30.55793,0.0621 -37.77601,-0.51492 -4.40652,-0.35282 -17.54004,13.234 -21.7884,12.6592 -3.99483,-0.5406 -7.22535,-0.6335 -8.38566,0.747 -9.89206,11.7683 -15.43887,28.7026 -15.43887,28.7026 l 14.78422,1.9088 z"
       id="path3869-0"
       inkscape:connector-curvature="0"
       sodipodi:nodetypes="csssssssssssssssssssssssscssssssssssssssssssssssssssccc"
       inkscape:transform-center-x="-92.709534"
       inkscape:transform-center-y="23.031052" />
    <path
       style="fill:#000000;fill-opacity:1;stroke:none;display:inline"
       d="m 454.4236,983.23996 21.84223,4.78714 c 0,0 -2.3939,-3.35051 0,0 10.30576,14.4235 43.27789,2.28255 49.30162,-2.76682 6.02382,-5.04934 11.39047,-4.55274 11.39047,-4.55274 0,0 -4.4106,-0.99872 -13.42044,-1.74863 -9.00978,-0.74984 -19.70678,-2.05719 -31.55084,0.71033 -11.84403,2.76754 -13.90015,6.41089 -13.90015,6.41089 l -22.18026,-4.44617 z"
       id="path3005-9-8-9"
       inkscape:connector-curvature="0"
       sodipodi:nodetypes="ccsscssccc"
       inkscape:transform-center-x="-117.53058"
       inkscape:transform-center-y="194.65624" />
    <path
       style="fill:#000000;fill-opacity:1;stroke:none;display:inline"
       d="m 614.93826,743.32804 -16.9995,-10.26929 c 0,0 4.76543,-0.42517 0,0 -20.51508,1.83038 -26.28497,-24.29986 -24.43118,-30.62742 1.85387,-6.32758 -1.62497,-9.22369 -1.62497,-9.22369 0,0 3.46571,2.05607 9.21993,6.9642 5.75422,4.90814 13.01434,10.50655 16.72385,19.01838 3.70945,8.51174 1.10484,11.72518 1.10484,11.72518 l 16.8364,10.65586 z"
       id="path3005-6-5-0"
       inkscape:connector-curvature="0"
       sodipodi:nodetypes="ccsscssccc"
       inkscape:transform-center-x="-215.66494"
       inkscape:transform-center-y="-73.495074" />
    <path
       style="fill:#000000;fill-opacity:1;stroke:none;display:inline"
       d="m 624.65435,779.5586 16.44964,-13.9972 c 0,0 5.8824,-2.0048 8.0357,-5.61102 1.54217,-2.58274 2.89566,-8.32187 3.89637,-17.528 0.81632,-7.5102 6.6e-4,-12.34022 -1.7968,-15.07368 -4.00082,-6.08418 -6.60174,-11.76797 -6.60174,-11.76797 0,0 -3.08313,3.4262 -5.68239,10.24249 -3.1259,8.19729 -3.03133,16.22123 -4.16431,25.6551 -1.13293,9.43372 2.64565,12.18853 2.64565,12.18853 l -14.22336,14.26592 z"
       id="path3005-7-0-2-0"
       inkscape:connector-curvature="0"
       sodipodi:nodetypes="ccssscssccc"
       inkscape:transform-center-x="-260.12304"
       inkscape:transform-center-y="-44.193253" />
    <path
       style="fill:#000000;fill-opacity:1;stroke:none;display:inline"
       d="m 594.12945,688.26187 -2.57243,-16.95971 c 0,0 -2.84115,3.1023 0,0 12.23106,-13.35532 -13.05734,-30.43406 -20.80656,-32.30829 -7.74919,-1.87423 -9.13238,-5.74218 -9.13238,-5.74218 0,0 0.48398,3.43879 2.89878,9.89556 2.4148,6.45678 4.82086,14.30619 12.14342,21.1425 7.32259,6.83622 12.08958,6.63113 12.08958,6.63113 l 3.07083,17.0395 z"
       id="path3005-6-1-9"
       inkscape:connector-curvature="0"
       sodipodi:nodetypes="ccsscssccc"
       inkscape:transform-center-x="-200.07039"
       inkscape:transform-center-y="-131.00612" />
    <path
       style="fill:#000000;fill-opacity:1;stroke:none;display:inline"
       d="m 591.71635,691.32171 -20.81847,-3.7733 c 0,0 0.32774,2.60029 -3.69506,5.24957 -9.69399,6.38409 -31.75698,-18.79125 -32.37176,-25.19585 -0.61467,-6.40453 -2.12153,-11.86582 -2.12153,-11.86582 0,0 5.7368,4.04203 13.33842,6.62986 7.60163,2.58791 12.39414,5.96403 19.36619,12.52666 6.97208,6.56265 5.63669,10.36553 5.63669,10.36553 l 20.80653,4.1811 z"
       id="path3005-7-9-6-2"
       inkscape:connector-curvature="0"
       sodipodi:nodetypes="ccsscssccc"
       inkscape:transform-center-x="-184.12327"
       inkscape:transform-center-y="-116.98167" />
    <path
       style="fill:#000000;fill-opacity:1;stroke:none;display:inline"
       d="m 497.81807,609.76063 -13.3314,-11.79845 c 0,0 -1.74973,-2.64656 -5.53764,-9.49935 -4.58738,-8.29923 -19.28673,-8.85998 -34.07736,-5.56856 -9.65091,2.14768 -17.72629,3.53703 -17.72629,3.53703 0,0 4.07726,3.7075 12.48182,8.86199 8.40456,5.15447 13.27883,7.00002 24.54761,6.73997 11.26873,-0.26014 18.49032,-1.17886 18.49032,-1.17886 l 13.66832,11.30015 z"
       id="path3005-3-4-9-0"
       inkscape:connector-curvature="0"
       sodipodi:nodetypes="ccsscssccc"
       inkscape:transform-center-x="-84.321545"
       inkscape:transform-center-y="-195.17637" />
    <path
       style="fill:#000000;fill-opacity:1;stroke:none;display:inline"
       d="m 558.3,648.40758 -2.57246,-16.95971 c 0,0 -2.84111,3.10232 0,0 12.23106,-13.35531 -13.05732,-30.43407 -20.80653,-32.30832 -7.74924,-1.87418 -9.13237,-5.74218 -9.13237,-5.74218 0,0 0.48395,3.43883 2.89876,9.89562 2.41481,6.45676 4.82088,14.30618 12.14344,21.14246 7.32254,6.83624 12.08953,6.63112 12.08953,6.63112 l 3.07084,17.03953 z"
       id="path3005-6-1-2-1"
       inkscape:connector-curvature="0"
       sodipodi:nodetypes="ccsscssccc"
       inkscape:transform-center-x="-164.24093"
       inkscape:transform-center-y="-170.86045" />
    <path
       style="fill:#000000;fill-opacity:1;stroke:none;display:inline"
       d="m 515.08917,618.99404 -0.36392,-11.85574 c 0,0 2.87509,1.1474 7.10045,-0.90704 10.18214,-4.95074 -12.03427,-30.03693 -19.17302,-32.72077 -7.1387,-2.6838 -12.93372,-5.69941 -12.93372,-5.69941 0,0 7.30436,4.64944 8.0013,11.17456 0.69699,6.52509 -1.25942,12.24803 4.16869,19.69066 5.42815,7.44269 10.17286,7.77807 10.17286,7.77807 l 0.83366,11.98893 z"
       id="path3005-7-6-0-3-9"
       inkscape:connector-curvature="0"
       sodipodi:nodetypes="ccsscssccc"
       inkscape:transform-center-x="-128.92524"
       inkscape:transform-center-y="-198.36035" />
    <path
       style="font-size:medium;font-style:normal;font-variant:normal;font-weight:normal;font-stretch:normal;text-indent:0;text-align:start;text-decoration:none;line-height:normal;letter-spacing:normal;word-spacing:normal;text-transform:none;direction:ltr;block-progression:tb;writing-mode:lr-tb;text-anchor:start;baseline-shift:baseline;color:#000000;fill:#000000;fill-opacity:1;stroke:none;stroke-width:15;marker:none;visibility:visible;display:inline;overflow:visible;enable-background:accumulate;font-family:Sans;-inkscape-font-specification:Sans"
       d="m 335.65045,679.494 c -86.39816,0.12746 -172.03281,61.02182 -191.53652,133.8106 l -2.60809,9.69597 9.88007,1.93307 c 0,0 117.90616,23.99448 182.54629,23.99448 69.32231,0 189.34767,-24.02518 189.34767,-24.02518 l 9.84942,-1.93305 -2.60811,-9.66529 C 513.50611,749.80347 424.02197,679.36353 335.65045,679.494 z m -4.11158,12.02791 c 9.74844,-0.21855 19.66956,4.06487 25.28319,12.54954 7.83995,2.87413 15.13577,7.12506 21.29433,12.70295 12.03071,10.8964 20.06697,26.64299 20.06697,48.32647 -0.01,22.16208 -8.09469,38.01859 -20.15901,48.84808 -10.17555,9.13406 -23.40206,14.5775 -37.1577,16.13951 -2.35932,0.0523 -4.68792,0.092 -6.93445,0.092 -3.33081,0 -6.83864,-0.0521 -10.49377,-0.18402 -13.01646,-1.65905 -25.43904,-6.85315 -35.10189,-15.46447 -12.03448,-10.72489 -20.17657,-26.65152 -20.25105,-49.33901 7e-5,-0.0126 -1.3e-4,-0.0211 0,-0.0308 -10e-5,-0.0211 3e-5,-0.0403 0,-0.0614 0.26244,-23.16032 8.53581,-39.20533 20.58856,-49.86064 5.84334,-5.16585 12.66089,-9.06079 20.00563,-11.65973 5.16785,-7.91247 13.94139,-11.85875 22.85919,-12.05859 z m 54.27908,12.4575 c 57.08629,13.46523 108.19966,59.83692 123.50097,104.44653 -18.09812,3.40506 -73.48688,13.4711 -124.02262,18.62487 0.85561,-0.7021 1.71903,-1.40486 2.54673,-2.14787 15.05587,-13.51479 25.05806,-33.94547 25.0684,-59.80207 0,-25.42893 -9.95604,-45.70126 -24.91497,-59.24978 -0.70961,-0.64268 -1.44826,-1.25866 -2.17851,-1.87168 z m -110.33778,3.43656 c -13.257,13.4115 -21.86671,32.94475 -22.12276,57.62355 l 0,0.0305 0,0.0614 c 0.0602,26.35228 10.07589,46.94539 25.19112,60.41576 0.36051,0.32129 0.73874,0.60721 1.10459,0.92049 -47.86517,-5.29918 -96.61897,-14.76894 -114.27553,-18.04189 15.84372,-44.87644 57.91085,-84.9499 110.10258,-101.00998 z m 28.56632,14.94283 c -12.38136,8.06419 -21.23465,22.20194 -21.44775,42.74207 0.15674,68.55428 101.07512,67.05739 101.10205,0 0,-20.04593 -9.32439,-34.35427 -22.30689,-42.58866 -2.04968,35.39581 -55.41734,36.10743 -57.34741,-0.15352 z"
       id="path4190-5-7"
       inkscape:connector-curvature="0"
       sodipodi:nodetypes="scccscccsccscscscscccsccccccccscccccscccccccccc" />
  </g>
</svg>
